<svg width="19" height="21" viewBox="0 0 19 21" fill="none" xmlns="http://www.w3.org/2000/svg">
<path d="M8.81695 0.945947L1.10362 10.3734C1.04334 10.447 1.04334 10.553 1.10362 10.6266L8.81695 20.0541C9.21706 20.5431 9.96476 20.5431 10.3649 20.0541L18.13 10.5633C18.1601 10.5265 18.1601 10.4735 18.13 10.4367L10.3649 0.945948C9.96476 0.456932 9.21706 0.456931 8.81695 0.945947Z" stroke="#BBBDC4"/>
<mask id="mask0_1550_6983" style="mask-type:alpha" maskUnits="userSpaceOnUse" x="1" y="0" width="18" height="21">
<path d="M8.63633 0.954584L1.09995 10.3751C1.04152 10.4481 1.04152 10.5519 1.09995 10.6249L8.63633 20.0454C9.03109 20.5389 9.77887 20.547 10.1843 20.0623L18.1282 10.5642C18.1592 10.527 18.1592 10.473 18.1282 10.4358L10.1843 0.937724C9.77887 0.452994 9.03109 0.461139 8.63633 0.954584Z" fill="#FFB44F"/>
</mask>
<g mask="url(#mask0_1550_6983)">
<path d="M6.72803 10.5L9.59166 0L12.4553 10.5L9.59166 21L6.72803 10.5Z" stroke="#BBBDC4"/>
</g>
</svg>
