<svg width="21" height="21" viewBox="0 0 21 21" fill="none" xmlns="http://www.w3.org/2000/svg">
<circle cx="10.5" cy="10.5" r="10" stroke="#BBBDC4"/>
<circle cx="6" cy="9" r="1" stroke="#BBBDC4"/>
<path d="M13.6448 13.6209C13.255 15.2025 11.8263 16.375 10.125 16.375C8.42372 16.375 6.99503 15.2025 6.60518 13.6209C6.58312 13.5314 6.60566 13.4533 6.66973 13.3843C6.73976 13.3088 6.85861 13.25 7 13.25H13.25C13.3914 13.25 13.5102 13.3088 13.5803 13.3843C13.6443 13.4533 13.6669 13.5314 13.6448 13.6209L14.1303 13.7406L13.6448 13.6209Z" stroke="#BBBDC4"/>
<path d="M15.75 9.75C15.75 8.92157 15.0784 8.25 14.25 8.25C13.4216 8.25 12.75 8.92157 12.75 9.75" stroke="#BBBDC4"/>
</svg>
